<svg width="16" height="13" viewBox="0 0 16 13" fill="none" xmlns="http://www.w3.org/2000/svg">
<path d="M14.3438 3.25C14.3646 3.39583 14.375 3.53125 14.375 3.65625C14.375 5.13542 14.0104 6.58333 13.2812 8C12.5729 9.41667 11.5208 10.5938 10.125 11.5312C8.75 12.4688 7.05208 12.9583 5.03125 13C3.15625 12.9792 1.47917 12.4896 0 11.5312C0.25 11.5521 0.510417 11.5625 0.78125 11.5625C2.34375 11.5417 3.70833 11.0729 4.875 10.1562C4.125 10.1354 3.47917 9.91667 2.9375 9.5C2.39583 9.08333 2.02083 8.55208 1.8125 7.90625C2 7.92708 2.19792 7.9375 2.40625 7.9375C2.71875 7.9375 3.01042 7.90625 3.28125 7.84375C2.51042 7.67708 1.88542 7.30208 1.40625 6.71875C0.927083 6.13542 0.677083 5.4375 0.65625 4.625V4.5625C1.09375 4.8125 1.58333 4.95833 2.125 5C1.20833 4.35417 0.71875 3.4375 0.65625 2.25C0.677083 1.64583 0.833333 1.09375 1.125 0.59375C1.9375 1.59375 2.92708 2.39583 4.09375 3C5.23958 3.60417 6.5 3.94792 7.875 4.03125C7.83333 3.78125 7.8125 3.53125 7.8125 3.28125C7.83333 2.36458 8.14583 1.59375 8.75 0.96875C9.375 0.34375 10.1458 0.0208333 11.0625 0C12.0417 0.0208333 12.8438 0.364583 13.4688 1.03125C14.2188 0.885417 14.9167 0.625 15.5625 0.25C15.2917 1.02083 14.8125 1.625 14.125 2.0625C14.7708 1.97917 15.3958 1.80208 16 1.53125C15.5417 2.19792 14.9896 2.77083 14.3438 3.25Z" fill="white"/>
</svg>
